<?xml version="1.0" standalone="no"?>
<!DOCTYPE svg PUBLIC "-//W3C//DTD SVG 1.0//EN" "http://www.w3.org/TR/2001/REC-SVG-20010904/DTD/svg10.dtd">
<svg xmlns="http://www.w3.org/2000/svg" xmlns:xlink="http://www.w3.org/1999/xlink" id="body_1" width="654" height="525">

<g transform="matrix(3 0 0 3 0 0)">
	<g>
        <path d="M50 87L84 87" stroke="#000000" stroke-width="2" fill="none" />
        <path d="M44 87C 44 85.34315 45.343147 84 47 84C 48.656853 84 50 85.34315 50 87C 50 88.65685 48.656853 90 47 90C 45.343147 90 44 88.65685 44 87" stroke="#000000" stroke-width="2" fill="none" />
        <path d="M84 87C 84 85.34315 85.34315 84 87 84C 88.65685 84 90 85.34315 90 87C 90 88.65685 88.65685 90 87 90C 85.34315 90 84 88.65685 84 87" stroke="#000000" stroke-width="2" fill="none" />
        <path d="M90 87L124 87" stroke="#000000" stroke-width="2" fill="none" />
        <path d="M84 87C 84 85.34315 85.34315 84 87 84C 88.65685 84 90 85.34315 90 87C 90 88.65685 88.65685 90 87 90C 85.34315 90 84 88.65685 84 87" stroke="#000000" stroke-width="2" fill="none" />
        <path d="M124 87C 124 85.34315 125.34315 84 127 84C 128.65686 84 130 85.34315 130 87C 130 88.65685 128.65686 90 127 90C 125.34315 90 124 88.65685 124 87" stroke="#000000" stroke-width="2" fill="none" />
        <path d="M50 127L87 127" stroke="#000000" stroke-width="2" fill="none" />
        <path d="M44 127C 44 125.34315 45.343147 124 47 124C 48.656853 124 50 125.34315 50 127C 50 128.65686 48.656853 130 47 130C 45.343147 130 44 128.65686 44 127" stroke="#000000" stroke-width="2" fill="#000000" fill-rule="nonzero" />
        <path d="M87 127L124 127" stroke="#000000" stroke-width="2" fill="none" />
        <path d="M124 127C 124 125.34315 125.34315 124 127 124C 128.65686 124 130 125.34315 130 127C 130 128.65686 128.65686 130 127 130C 125.34315 130 124 128.65686 124 127" stroke="#000000" stroke-width="2" fill="#000000" fill-rule="nonzero" />
        <path d="M87 124L87 90" stroke="#000000" stroke-width="2" fill="none" />
        <path d="M84 127C 84 125.34315 85.34315 124 87 124C 88.65685 124 90 125.34315 90 127C 90 128.65686 88.65685 130 87 130C 85.34315 130 84 128.65686 84 127" stroke="#000000" stroke-width="2" fill="none" />
        <path d="M84 87C 84 85.34315 85.34315 84 87 84C 88.65685 84 90 85.34315 90 87C 90 88.65685 88.65685 90 87 90C 85.34315 90 84 88.65685 84 87" stroke="#000000" stroke-width="2" fill="none" />
        <path d="M127 90L127 124" stroke="#000000" stroke-width="2" stroke-dasharray="2,6" fill="none" />
        <path d="M124 87C 124 85.34315 125.34315 84 127 84C 128.65686 84 130 85.34315 130 87C 130 88.65685 128.65686 90 127 90C 125.34315 90 124 88.65685 124 87" stroke="#000000" stroke-width="2" fill="none" />
        <path d="M124 127C 124 125.34315 125.34315 124 127 124C 128.65686 124 130 125.34315 130 127C 130 128.65686 128.65686 130 127 130C 125.34315 130 124 128.65686 124 127" stroke="#000000" stroke-width="2" fill="none" />
        <path d="M47 90L47 124" stroke="#000000" stroke-width="2" stroke-dasharray="2,6" fill="none" />
        <path d="M44 87C 44 85.34315 45.343147 84 47 84C 48.656853 84 50 85.34315 50 87C 50 88.65685 48.656853 90 47 90C 45.343147 90 44 88.65685 44 87" stroke="#000000" stroke-width="2" fill="none" />
        <path d="M44 127C 44 125.34315 45.343147 124 47 124C 48.656853 124 50 125.34315 50 127C 50 128.65686 48.656853 130 47 130C 45.343147 130 44 128.65686 44 127" stroke="#000000" stroke-width="2" fill="none" />
        <path d="M85 167L49 167" stroke="#000000" stroke-width="2" stroke-dasharray="2,6" fill="none" />
        <path d="M85 167C 85 165.89543 85.89543 165 87 165C 88.10457 165 89 165.89543 89 167C 89 168.10457 88.10457 169 87 169C 85.89543 169 85 168.10457 85 167" stroke="#000000" stroke-width="2" fill="none" />
        <path d="M45 167C 45 165.89543 45.89543 165 47 165C 48.10457 165 49 165.89543 49 167C 49 168.10457 48.10457 169 47 169C 45.89543 169 45 168.10457 45 167" stroke="#000000" stroke-width="2" fill="none" />
        <path d="M125 167L89 167" stroke="#000000" stroke-width="2" stroke-dasharray="2,6" fill="none" />
        <path d="M125 167C 125 165.89543 125.89543 165 127 165C 128.10457 165 129 165.89543 129 167C 129 168.10457 128.10457 169 127 169C 125.89543 169 125 168.10457 125 167" stroke="#000000" stroke-width="2" fill="none" />
        <path d="M85 167C 85 165.89543 85.89543 165 87 165C 88.10457 165 89 165.89543 89 167C 89 168.10457 88.10457 169 87 169C 85.89543 169 85 168.10457 85 167" stroke="#000000" stroke-width="2" fill="none" />
        <path d="M187 47L217 47L217 77L187 77z" stroke="none" fill="none" />
		<g transform="matrix(1 0 0 1 -0.5 -0.5)">
			<text transform="matrix(1 0 0 1 0 0)" x="197.0625" y="67" style="fill:#FF1900;font-family:Arial;" font-size="16">
σ
			</text>
		</g>
        <path d="M187 87L217 87L217 117L187 117z" stroke="none" fill="none" />
		<g transform="matrix(1 0 0 1 -0.5 -0.5)">
			<text transform="matrix(1 0 0 1 0 0)" x="188.16406" y="107" style="fill:#FF1900;font-family:Arial;" font-size="16">
1–σ
			</text>
		</g>
        <path d="M45 87L9 87" stroke="#000000" stroke-width="2" stroke-dasharray="2,6" fill="none" />
        <path d="M45 87C 45 85.89543 45.89543 85 47 85C 48.10457 85 49 85.89543 49 87C 49 88.10457 48.10457 89 47 89C 45.89543 89 45 88.10457 45 87" stroke="#000000" stroke-width="2" fill="none" />
        <path d="M5 87C 5 85.89543 5.8954306 85 7 85C 8.104569 85 9 85.89543 9 87C 9 88.10457 8.104569 89 7 89C 5.8954306 89 5 88.10457 5 87" stroke="#000000" stroke-width="2" fill="none" />
        <path d="M45 127L9 127" stroke="#000000" stroke-width="2" stroke-dasharray="2,6" fill="none" />
        <path d="M45 127C 45 125.89543 45.89543 125 47 125C 48.10457 125 49 125.89543 49 127C 49 128.10457 48.10457 129 47 129C 45.89543 129 45 128.10457 45 127" stroke="#000000" stroke-width="2" fill="none" />
        <path d="M5 127C 5 125.89543 5.8954306 125 7 125C 8.104569 125 9 125.89543 9 127C 9 128.10457 8.104569 129 7 129C 5.8954306 129 5 128.10457 5 127" stroke="#000000" stroke-width="2" fill="none" />
        <path d="M45 167L9 167" stroke="#000000" stroke-width="2" stroke-dasharray="2,6" fill="none" />
        <path d="M45 167C 45 165.89543 45.89543 165 47 165C 48.10457 165 49 165.89543 49 167C 49 168.10457 48.10457 169 47 169C 45.89543 169 45 168.10457 45 167" stroke="#000000" stroke-width="2" fill="none" />
        <path d="M5 167C 5 165.89543 5.8954306 165 7 165C 8.104569 165 9 165.89543 9 167C 9 168.10457 8.104569 169 7 169C 5.8954306 169 5 168.10457 5 167" stroke="#000000" stroke-width="2" fill="none" />
        <path d="M7 129L7 165" stroke="#000000" stroke-width="2" stroke-dasharray="2,6" fill="none" />
        <path d="M5 127C 5 125.89543 5.8954306 125 7 125C 8.104569 125 9 125.89543 9 127C 9 128.10457 8.104569 129 7 129C 5.8954306 129 5 128.10457 5 127" stroke="#000000" stroke-width="2" fill="none" />
        <path d="M5 167C 5 165.89543 5.8954306 165 7 165C 8.104569 165 9 165.89543 9 167C 9 168.10457 8.104569 169 7 169C 5.8954306 169 5 168.10457 5 167" stroke="#000000" stroke-width="2" fill="none" />
        <path d="M7 89L7 125" stroke="#000000" stroke-width="2" stroke-dasharray="2,6" fill="none" />
        <path d="M5 87C 5 85.89543 5.8954306 85 7 85C 8.104569 85 9 85.89543 9 87C 9 88.10457 8.104569 89 7 89C 5.8954306 89 5 88.10457 5 87" stroke="#000000" stroke-width="2" fill="none" />
        <path d="M5 127C 5 125.89543 5.8954306 125 7 125C 8.104569 125 9 125.89543 9 127C 9 128.10457 8.104569 129 7 129C 5.8954306 129 5 128.10457 5 127" stroke="#000000" stroke-width="2" fill="none" />
        <path d="M126.6 90L126.6 124" stroke="#000000" stroke-width="2" stroke-dasharray="2,6" fill="none" />
        <path d="M123.6 87C 123.6 85.34315 124.943146 84 126.6 84C 128.25685 84 129.6 85.34315 129.6 87C 129.6 88.65685 128.25685 90 126.6 90C 124.943146 90 123.6 88.65685 123.6 87" stroke="#000000" stroke-width="2" fill="none" />
        <path d="M123.6 127C 123.6 125.34315 124.943146 124 126.6 124C 128.25685 124 129.6 125.34315 129.6 127C 129.6 128.65686 128.25685 130 126.6 130C 124.943146 130 123.6 128.65686 123.6 127" stroke="#000000" stroke-width="2" fill="none" />
        <path d="M164.6 167L128.6 167" stroke="#000000" stroke-width="2" stroke-dasharray="2,6" fill="none" />
        <path d="M164.6 167C 164.6 165.89543 165.49544 165 166.6 165C 167.70457 165 168.6 165.89543 168.6 167C 168.6 168.10457 167.70457 169 166.6 169C 165.49544 169 164.6 168.10457 164.6 167" stroke="#000000" stroke-width="2" fill="none" />
        <path d="M124.6 167C 124.6 165.89543 125.49543 165 126.6 165C 127.70457 165 128.6 165.89543 128.6 167C 128.6 168.10457 127.70457 169 126.6 169C 125.49543 169 124.6 168.10457 124.6 167" stroke="#000000" stroke-width="2" fill="none" />
        <path d="M187 62L152.96 74.76" stroke="#FF1900" stroke-width="1" fill="none" />
        <path d="M148.05 76.61L153.37 70.87L152.96 74.76L155.83 77.43L148.05 76.61z" stroke="#FF1900" stroke-width="1" fill="#FF1900" fill-rule="nonzero" />
        <path d="M187 102L152.96 114.76" stroke="#FF1900" stroke-width="1" fill="none" />
        <path d="M148.05 116.61L153.37 110.87L152.96 114.76L155.83 117.43L148.05 116.61z" stroke="#FF1900" stroke-width="1" fill="#FF1900" fill-rule="nonzero" />
        <path d="M47 129L47 165" stroke="#000000" stroke-width="2" stroke-dasharray="2,6" fill="none" />
        <path d="M45 127C 45 125.89543 45.89543 125 47 125C 48.10457 125 49 125.89543 49 127C 49 128.10457 48.10457 129 47 129C 45.89543 129 45 128.10457 45 127" stroke="#000000" stroke-width="2" fill="none" />
        <path d="M45 167C 45 165.89543 45.89543 165 47 165C 48.10457 165 49 165.89543 49 167C 49 168.10457 48.10457 169 47 169C 45.89543 169 45 168.10457 45 167" stroke="#000000" stroke-width="2" fill="none" />
        <path d="M126.6 90L126.6 124" stroke="#000000" stroke-width="2" stroke-dasharray="2,6" fill="none" />
        <path d="M123.6 87C 123.6 85.34315 124.943146 84 126.6 84C 128.25685 84 129.6 85.34315 129.6 87C 129.6 88.65685 128.25685 90 126.6 90C 124.943146 90 123.6 88.65685 123.6 87" stroke="#000000" stroke-width="2" fill="none" />
        <path d="M123.6 127C 123.6 125.34315 124.943146 124 126.6 124C 128.25685 124 129.6 125.34315 129.6 127C 129.6 128.65686 128.25685 130 126.6 130C 124.943146 130 123.6 128.65686 123.6 127" stroke="#000000" stroke-width="2" fill="none" />
        <path d="M126.6 89L126.6 125" stroke="#000000" stroke-width="2" stroke-dasharray="2,6" fill="none" />
        <path d="M124.6 87C 124.6 85.89543 125.49543 85 126.6 85C 127.70457 85 128.6 85.89543 128.6 87C 128.6 88.10457 127.70457 89 126.6 89C 125.49543 89 124.6 88.10457 124.6 87" stroke="#000000" stroke-width="2" fill="none" />
        <path d="M124.6 127C 124.6 125.89543 125.49543 125 126.6 125C 127.70457 125 128.6 125.89543 128.6 127C 128.6 128.10457 127.70457 129 126.6 129C 125.49543 129 124.6 128.10457 124.6 127" stroke="#000000" stroke-width="2" fill="none" />
        <path d="M165 127L129 127" stroke="#000000" stroke-width="2" stroke-dasharray="2,6" fill="none" />
        <path d="M165 127C 165 125.89543 165.89543 125 167 125C 168.10457 125 169 125.89543 169 127C 169 128.10457 168.10457 129 167 129C 165.89543 129 165 128.10457 165 127" stroke="#000000" stroke-width="2" fill="none" />
        <path d="M125 127C 125 125.89543 125.89543 125 127 125C 128.10457 125 129 125.89543 129 127C 129 128.10457 128.10457 129 127 129C 125.89543 129 125 128.10457 125 127" stroke="#000000" stroke-width="2" fill="none" />
        <path d="M165 87L129 87" stroke="#000000" stroke-width="2" stroke-dasharray="2,6" fill="none" />
        <path d="M165 87C 165 85.89543 165.89543 85 167 85C 168.10457 85 169 85.89543 169 87C 169 88.10457 168.10457 89 167 89C 165.89543 89 165 88.10457 165 87" stroke="#000000" stroke-width="2" fill="none" />
        <path d="M125 87C 125 85.89543 125.89543 85 127 85C 128.10457 85 129 85.89543 129 87C 129 88.10457 128.10457 89 127 89C 125.89543 89 125 88.10457 125 87" stroke="#000000" stroke-width="2" fill="none" />
        <path d="M85 47L49 47" stroke="#000000" stroke-width="2" stroke-dasharray="2,6" fill="none" />
        <path d="M85 47C 85 45.89543 85.89543 45 87 45C 88.10457 45 89 45.89543 89 47C 89 48.10457 88.10457 49 87 49C 85.89543 49 85 48.10457 85 47" stroke="#000000" stroke-width="2" fill="none" />
        <path d="M45 47C 45 45.89543 45.89543 45 47 45C 48.10457 45 49 45.89543 49 47C 49 48.10457 48.10457 49 47 49C 45.89543 49 45 48.10457 45 47" stroke="#000000" stroke-width="2" fill="none" />
        <path d="M125 47L89 47" stroke="#000000" stroke-width="2" stroke-dasharray="2,6" fill="none" />
        <path d="M125 47C 125 45.89543 125.89543 45 127 45C 128.10457 45 129 45.89543 129 47C 129 48.10457 128.10457 49 127 49C 125.89543 49 125 48.10457 125 47" stroke="#000000" stroke-width="2" fill="none" />
        <path d="M85 47C 85 45.89543 85.89543 45 87 45C 88.10457 45 89 45.89543 89 47C 89 48.10457 88.10457 49 87 49C 85.89543 49 85 48.10457 85 47" stroke="#000000" stroke-width="2" fill="none" />
        <path d="M45 47L9 47" stroke="#000000" stroke-width="2" stroke-dasharray="2,6" fill="none" />
        <path d="M45 47C 45 45.89543 45.89543 45 47 45C 48.10457 45 49 45.89543 49 47C 49 48.10457 48.10457 49 47 49C 45.89543 49 45 48.10457 45 47" stroke="#000000" stroke-width="2" fill="none" />
        <path d="M5 47C 5 45.89543 5.8954306 45 7 45C 8.104569 45 9 45.89543 9 47C 9 48.10457 8.104569 49 7 49C 5.8954306 49 5 48.10457 5 47" stroke="#000000" stroke-width="2" fill="none" />
        <path d="M164.6 47L128.6 47" stroke="#000000" stroke-width="2" stroke-dasharray="2,6" fill="none" />
        <path d="M164.6 47C 164.6 45.89543 165.49544 45 166.6 45C 167.70457 45 168.6 45.89543 168.6 47C 168.6 48.10457 167.70457 49 166.6 49C 165.49544 49 164.6 48.10457 164.6 47" stroke="#000000" stroke-width="2" fill="none" />
        <path d="M124.6 47C 124.6 45.89543 125.49543 45 126.6 45C 127.70457 45 128.6 45.89543 128.6 47C 128.6 48.10457 127.70457 49 126.6 49C 125.49543 49 124.6 48.10457 124.6 47" stroke="#000000" stroke-width="2" fill="none" />
        <path d="M85 7L49 7" stroke="#000000" stroke-width="2" stroke-dasharray="2,6" fill="none" />
        <path d="M85 7C 85 5.8954306 85.89543 5 87 5C 88.10457 5 89 5.8954306 89 7C 89 8.104569 88.10457 9 87 9C 85.89543 9 85 8.104569 85 7" stroke="#000000" stroke-width="2" fill="none" />
        <path d="M45 7C 45 5.8954306 45.89543 5 47 5C 48.10457 5 49 5.8954306 49 7C 49 8.104569 48.10457 9 47 9C 45.89543 9 45 8.104569 45 7" stroke="#000000" stroke-width="2" fill="none" />
        <path d="M125 7L89 7" stroke="#000000" stroke-width="2" stroke-dasharray="2,6" fill="none" />
        <path d="M125 7C 125 5.8954306 125.89543 5 127 5C 128.10457 5 129 5.8954306 129 7C 129 8.104569 128.10457 9 127 9C 125.89543 9 125 8.104569 125 7" stroke="#000000" stroke-width="2" fill="none" />
        <path d="M85 7C 85 5.8954306 85.89543 5 87 5C 88.10457 5 89 5.8954306 89 7C 89 8.104569 88.10457 9 87 9C 85.89543 9 85 8.104569 85 7" stroke="#000000" stroke-width="2" fill="none" />
        <path d="M45 7L9 7" stroke="#000000" stroke-width="2" stroke-dasharray="2,6" fill="none" />
        <path d="M45 7C 45 5.8954306 45.89543 5 47 5C 48.10457 5 49 5.8954306 49 7C 49 8.104569 48.10457 9 47 9C 45.89543 9 45 8.104569 45 7" stroke="#000000" stroke-width="2" fill="none" />
        <path d="M5 7C 5 5.8954306 5.8954306 5 7 5C 8.104569 5 9 5.8954306 9 7C 9 8.104569 8.104569 9 7 9C 5.8954306 9 5 8.104569 5 7" stroke="#000000" stroke-width="2" fill="none" />
        <path d="M164.6 7L128.6 7" stroke="#000000" stroke-width="2" stroke-dasharray="2,6" fill="none" />
        <path d="M164.6 7C 164.6 5.8954306 165.49544 5 166.6 5C 167.70457 5 168.6 5.8954306 168.6 7C 168.6 8.104569 167.70457 9 166.6 9C 165.49544 9 164.6 8.104569 164.6 7" stroke="#000000" stroke-width="2" fill="none" />
        <path d="M124.6 7C 124.6 5.8954306 125.49543 5 126.6 5C 127.70457 5 128.6 5.8954306 128.6 7C 128.6 8.104569 127.70457 9 126.6 9C 125.49543 9 124.6 8.104569 124.6 7" stroke="#000000" stroke-width="2" fill="none" />
        <path d="M7 49L7 85" stroke="#000000" stroke-width="2" stroke-dasharray="2,6" fill="none" />
        <path d="M5 47C 5 45.89543 5.8954306 45 7 45C 8.104569 45 9 45.89543 9 47C 9 48.10457 8.104569 49 7 49C 5.8954306 49 5 48.10457 5 47" stroke="#000000" stroke-width="2" fill="none" />
        <path d="M5 87C 5 85.89543 5.8954306 85 7 85C 8.104569 85 9 85.89543 9 87C 9 88.10457 8.104569 89 7 89C 5.8954306 89 5 88.10457 5 87" stroke="#000000" stroke-width="2" fill="none" />
        <path d="M7 9L7 45" stroke="#000000" stroke-width="2" stroke-dasharray="2,6" fill="none" />
        <path d="M5 7C 5 5.8954306 5.8954306 5 7 5C 8.104569 5 9 5.8954306 9 7C 9 8.104569 8.104569 9 7 9C 5.8954306 9 5 8.104569 5 7" stroke="#000000" stroke-width="2" fill="none" />
        <path d="M5 47C 5 45.89543 5.8954306 45 7 45C 8.104569 45 9 45.89543 9 47C 9 48.10457 8.104569 49 7 49C 5.8954306 49 5 48.10457 5 47" stroke="#000000" stroke-width="2" fill="none" />
        <path d="M47 49L47 85" stroke="#000000" stroke-width="2" stroke-dasharray="2,6" fill="none" />
        <path d="M45 47C 45 45.89543 45.89543 45 47 45C 48.10457 45 49 45.89543 49 47C 49 48.10457 48.10457 49 47 49C 45.89543 49 45 48.10457 45 47" stroke="#000000" stroke-width="2" fill="none" />
        <path d="M45 87C 45 85.89543 45.89543 85 47 85C 48.10457 85 49 85.89543 49 87C 49 88.10457 48.10457 89 47 89C 45.89543 89 45 88.10457 45 87" stroke="#000000" stroke-width="2" fill="none" />
        <path d="M47 9L47 45" stroke="#000000" stroke-width="2" stroke-dasharray="2,6" fill="none" />
        <path d="M45 7C 45 5.8954306 45.89543 5 47 5C 48.10457 5 49 5.8954306 49 7C 49 8.104569 48.10457 9 47 9C 45.89543 9 45 8.104569 45 7" stroke="#000000" stroke-width="2" fill="none" />
        <path d="M45 47C 45 45.89543 45.89543 45 47 45C 48.10457 45 49 45.89543 49 47C 49 48.10457 48.10457 49 47 49C 45.89543 49 45 48.10457 45 47" stroke="#000000" stroke-width="2" fill="none" />
        <path d="M87 49L87 85" stroke="#000000" stroke-width="2" stroke-dasharray="2,6" fill="none" />
        <path d="M85 47C 85 45.89543 85.89543 45 87 45C 88.10457 45 89 45.89543 89 47C 89 48.10457 88.10457 49 87 49C 85.89543 49 85 48.10457 85 47" stroke="#000000" stroke-width="2" fill="none" />
        <path d="M85 87C 85 85.89543 85.89543 85 87 85C 88.10457 85 89 85.89543 89 87C 89 88.10457 88.10457 89 87 89C 85.89543 89 85 88.10457 85 87" stroke="#000000" stroke-width="2" fill="none" />
        <path d="M87 9L87 45" stroke="#000000" stroke-width="2" stroke-dasharray="2,6" fill="none" />
        <path d="M85 7C 85 5.8954306 85.89543 5 87 5C 88.10457 5 89 5.8954306 89 7C 89 8.104569 88.10457 9 87 9C 85.89543 9 85 8.104569 85 7" stroke="#000000" stroke-width="2" fill="none" />
        <path d="M85 47C 85 45.89543 85.89543 45 87 45C 88.10457 45 89 45.89543 89 47C 89 48.10457 88.10457 49 87 49C 85.89543 49 85 48.10457 85 47" stroke="#000000" stroke-width="2" fill="none" />
        <path d="M127 49L127 85" stroke="#000000" stroke-width="2" stroke-dasharray="2,6" fill="none" />
        <path d="M125 47C 125 45.89543 125.89543 45 127 45C 128.10457 45 129 45.89543 129 47C 129 48.10457 128.10457 49 127 49C 125.89543 49 125 48.10457 125 47" stroke="#000000" stroke-width="2" fill="none" />
        <path d="M125 87C 125 85.89543 125.89543 85 127 85C 128.10457 85 129 85.89543 129 87C 129 88.10457 128.10457 89 127 89C 125.89543 89 125 88.10457 125 87" stroke="#000000" stroke-width="2" fill="none" />
        <path d="M127 9L127 45" stroke="#000000" stroke-width="2" stroke-dasharray="2,6" fill="none" />
        <path d="M125 7C 125 5.8954306 125.89543 5 127 5C 128.10457 5 129 5.8954306 129 7C 129 8.104569 128.10457 9 127 9C 125.89543 9 125 8.104569 125 7" stroke="#000000" stroke-width="2" fill="none" />
        <path d="M125 47C 125 45.89543 125.89543 45 127 45C 128.10457 45 129 45.89543 129 47C 129 48.10457 128.10457 49 127 49C 125.89543 49 125 48.10457 125 47" stroke="#000000" stroke-width="2" fill="none" />
        <path d="M167 49L167 85" stroke="#000000" stroke-width="2" stroke-dasharray="2,6" fill="none" />
        <path d="M165 47C 165 45.89543 165.89543 45 167 45C 168.10457 45 169 45.89543 169 47C 169 48.10457 168.10457 49 167 49C 165.89543 49 165 48.10457 165 47" stroke="#000000" stroke-width="2" fill="none" />
        <path d="M165 87C 165 85.89543 165.89543 85 167 85C 168.10457 85 169 85.89543 169 87C 169 88.10457 168.10457 89 167 89C 165.89543 89 165 88.10457 165 87" stroke="#000000" stroke-width="2" fill="none" />
        <path d="M167 9L167 45" stroke="#000000" stroke-width="2" stroke-dasharray="2,6" fill="none" />
        <path d="M165 7C 165 5.8954306 165.89543 5 167 5C 168.10457 5 169 5.8954306 169 7C 169 8.104569 168.10457 9 167 9C 165.89543 9 165 8.104569 165 7" stroke="#000000" stroke-width="2" fill="none" />
        <path d="M165 47C 165 45.89543 165.89543 45 167 45C 168.10457 45 169 45.89543 169 47C 169 48.10457 168.10457 49 167 49C 165.89543 49 165 48.10457 165 47" stroke="#000000" stroke-width="2" fill="none" />
        <path d="M167 129L167 165" stroke="#000000" stroke-width="2" stroke-dasharray="2,6" fill="none" />
        <path d="M165 127C 165 125.89543 165.89543 125 167 125C 168.10457 125 169 125.89543 169 127C 169 128.10457 168.10457 129 167 129C 165.89543 129 165 128.10457 165 127" stroke="#000000" stroke-width="2" fill="none" />
        <path d="M165 167C 165 165.89543 165.89543 165 167 165C 168.10457 165 169 165.89543 169 167C 169 168.10457 168.10457 169 167 169C 165.89543 169 165 168.10457 165 167" stroke="#000000" stroke-width="2" fill="none" />
        <path d="M167 89L167 125" stroke="#000000" stroke-width="2" stroke-dasharray="2,6" fill="none" />
        <path d="M165 87C 165 85.89543 165.89543 85 167 85C 168.10457 85 169 85.89543 169 87C 169 88.10457 168.10457 89 167 89C 165.89543 89 165 88.10457 165 87" stroke="#000000" stroke-width="2" fill="none" />
        <path d="M165 127C 165 125.89543 165.89543 125 167 125C 168.10457 125 169 125.89543 169 127C 169 128.10457 168.10457 129 167 129C 165.89543 129 165 128.10457 165 127" stroke="#000000" stroke-width="2" fill="none" />
        <path d="M127 129L127 165" stroke="#000000" stroke-width="2" stroke-dasharray="2,6" fill="none" />
        <path d="M125 127C 125 125.89543 125.89543 125 127 125C 128.10457 125 129 125.89543 129 127C 129 128.10457 128.10457 129 127 129C 125.89543 129 125 128.10457 125 127" stroke="#000000" stroke-width="2" fill="none" />
        <path d="M125 167C 125 165.89543 125.89543 165 127 165C 128.10457 165 129 165.89543 129 167C 129 168.10457 128.10457 169 127 169C 125.89543 169 125 168.10457 125 167" stroke="#000000" stroke-width="2" fill="none" />
        <path d="M87 129L87 165" stroke="#000000" stroke-width="2" stroke-dasharray="2,6" fill="none" />
        <path d="M85 127C 85 125.89543 85.89543 125 87 125C 88.10457 125 89 125.89543 89 127C 89 128.10457 88.10457 129 87 129C 85.89543 129 85 128.10457 85 127" stroke="#000000" stroke-width="2" fill="none" />
        <path d="M85 167C 85 165.89543 85.89543 165 87 165C 88.10457 165 89 165.89543 89 167C 89 168.10457 88.10457 169 87 169C 85.89543 169 85 168.10457 85 167" stroke="#000000" stroke-width="2" fill="none" />
	</g>
	<g>
	</g>
	<text transform="matrix(1 0 0 1 0 0)" x="251.03564" y="525" style="fill:#000000;font-family:Times New Roman;" font-size="10">
Viewer does not support full SVG 1.1
	</text>
</g>
</svg>